<svg version="1.1" xmlns="http://www.w3.org/2000/svg" viewBox="0 0 4002.890624999999 1648.4923076923096" width="4002.890624999999" height="1648.4923076923096" filter="invert(93%) hue-rotate(180deg)">
  <!-- svg-source:excalidraw -->
  
  <defs>
    <style class="style-fonts">
      @font-face {
        font-family: "Virgil";
        src: url("https://excalidraw.com/Virgil.woff2");
      }
      @font-face {
        font-family: "Cascadia";
        src: url("https://excalidraw.com/Cascadia.woff2");
      }
      @font-face {
        font-family: "Assistant";
        src: url("https://excalidraw.com/Assistant-Regular.woff2");
      }
    </style>
    
  </defs>
  <rect x="0" y="0" width="4002.890624999999" height="1648.4923076923096" fill="#f5faff"></rect><g transform="translate(476.1718749999998 32.83076923077033) rotate(0 509.6093749999998 802.8307692307696)"><text x="509.6093749999998" y="0" font-family="Cascadia, Segoe UI Emoji" font-size="133.8051282051282px" fill="#1971c2" text-anchor="middle" style="white-space: pre;" direction="ltr" dominant-baseline="text-before-edge">0 0 0 0 0 0 0</text><text x="509.6093749999998" y="160.56615384615384" font-family="Cascadia, Segoe UI Emoji" font-size="133.8051282051282px" fill="#1971c2" text-anchor="middle" style="white-space: pre;" direction="ltr" dominant-baseline="text-before-edge">0 0 0 0 0 0 0</text><text x="509.6093749999998" y="321.1323076923077" font-family="Cascadia, Segoe UI Emoji" font-size="133.8051282051282px" fill="#1971c2" text-anchor="middle" style="white-space: pre;" direction="ltr" dominant-baseline="text-before-edge">0 0 0 0 0 0 0</text><text x="509.6093749999998" y="481.6984615384615" font-family="Cascadia, Segoe UI Emoji" font-size="133.8051282051282px" fill="#1971c2" text-anchor="middle" style="white-space: pre;" direction="ltr" dominant-baseline="text-before-edge">0 0 0 0 0 0 0</text><text x="509.6093749999998" y="642.2646153846154" font-family="Cascadia, Segoe UI Emoji" font-size="133.8051282051282px" fill="#1971c2" text-anchor="middle" style="white-space: pre;" direction="ltr" dominant-baseline="text-before-edge">0 0 1 2 1 0 0</text><text x="509.6093749999998" y="802.8307692307692" font-family="Cascadia, Segoe UI Emoji" font-size="133.8051282051282px" fill="#1971c2" text-anchor="middle" style="white-space: pre;" direction="ltr" dominant-baseline="text-before-edge">0 0 1 3 2 0 0</text><text x="509.6093749999998" y="963.396923076923" font-family="Cascadia, Segoe UI Emoji" font-size="133.8051282051282px" fill="#1971c2" text-anchor="middle" style="white-space: pre;" direction="ltr" dominant-baseline="text-before-edge">0 0 1 2 1 0 0</text><text x="509.6093749999998" y="1123.9630769230769" font-family="Cascadia, Segoe UI Emoji" font-size="133.8051282051282px" fill="#1971c2" text-anchor="middle" style="white-space: pre;" direction="ltr" dominant-baseline="text-before-edge">0 0 4 2 9 0 0</text><text x="509.6093749999998" y="1284.5292307692307" font-family="Cascadia, Segoe UI Emoji" font-size="133.8051282051282px" fill="#1971c2" text-anchor="middle" style="white-space: pre;" direction="ltr" dominant-baseline="text-before-edge">0 0 0 0 0 0 0</text><text x="509.6093749999998" y="1445.0953846153845" font-family="Cascadia, Segoe UI Emoji" font-size="133.8051282051282px" fill="#1971c2" text-anchor="middle" style="white-space: pre;" direction="ltr" dominant-baseline="text-before-edge">0 0 0 0 0 0 0</text></g><g stroke-linecap="round" transform="translate(630.7812499999998 685.3307692307698) rotate(0 43.75 67.49999999999994)"><path d="M21.87 0 C32.62 0.7, 37.84 0.91, 65.62 0 M21.87 0 C31.15 0.18, 39.7 0.34, 65.62 0 M65.62 0 C81.09 -0.3, 85.69 8.13, 87.5 21.87 M65.62 0 C79.03 0.8, 88.36 5.4, 87.5 21.87 M87.5 21.87 C88.16 42.3, 85.07 58.28, 87.5 113.12 M87.5 21.87 C87.43 46.06, 87.82 70.23, 87.5 113.12 M87.5 113.12 C89.02 126.34, 78.55 134.12, 65.62 135 M87.5 113.12 C85.24 126.74, 79.17 134.08, 65.62 135 M65.62 135 C50.03 137.1, 30.56 134.79, 21.87 135 M65.62 135 C52.44 135.97, 40.98 135.6, 21.87 135 M21.87 135 C8.16 135.13, -1.71 127.1, 0 113.12 M21.87 135 C6.61 133.19, -1.59 126.68, 0 113.12 M0 113.12 C-1.16 91.2, -1.13 68.02, 0 21.87 M0 113.12 C0.68 77.13, 0.3 41.18, 0 21.87 M0 21.87 C1.16 9.12, 6.65 1.86, 21.87 0 M0 21.87 C2.03 7.2, 6.88 1.6, 21.87 0" stroke="#c2255c" stroke-width="2" fill="none"></path></g><g stroke-linecap="round" transform="translate(1257.0312499999993 1332.8307692307694) rotate(0 43.75 67.49999999999994)"><path d="M21.87 0 C35.79 1.7, 47.28 0.14, 65.62 0 M21.87 0 C36.57 0.87, 50.31 0.9, 65.62 0 M65.62 0 C81.47 0.02, 87.99 6.49, 87.5 21.87 M65.62 0 C79.94 0.07, 89.52 5.77, 87.5 21.87 M87.5 21.87 C85.87 50.89, 86.93 82.92, 87.5 113.12 M87.5 21.87 C88.14 50.01, 86.87 78.79, 87.5 113.12 M87.5 113.12 C85.84 128.6, 78.33 133.4, 65.62 135 M87.5 113.12 C85.28 128.12, 81.82 135.49, 65.62 135 M65.62 135 C51.86 136.19, 36.01 133.74, 21.87 135 M65.62 135 C49.31 135.13, 31.6 133.84, 21.87 135 M21.87 135 C8.71 134.22, -1.46 127.16, 0 113.12 M21.87 135 C7.72 134.04, 0.87 128.37, 0 113.12 M0 113.12 C0.9 88.7, 1.63 63.7, 0 21.87 M0 113.12 C0.91 93.92, 0.47 73.83, 0 21.87 M0 21.87 C-0.66 6.8, 6.1 1.53, 21.87 0 M0 21.87 C0.75 8.05, 8.91 0.69, 21.87 0" stroke="#c2255c" stroke-width="2" fill="none"></path></g><g transform="translate(10 602.8307692307696) rotate(0 118.212890625 40.349999999999966)"><text x="118.21289062499996" y="0" font-family="Cascadia, Segoe UI Emoji" font-size="67.24999999999999px" fill="#c2255c" text-anchor="middle" style="white-space: pre;" direction="ltr" dominant-baseline="text-before-edge">(4, 2)</text></g><g stroke-linecap="round"><g transform="translate(253.28125 662.8307692307696) rotate(0 179.9999999999999 87.5)"><path d="M-0.52 0.19 C34.6 29.07, 151.12 154.87, 211.12 174.24 C271.11 193.62, 334.57 126, 359.46 116.43 M1.41 -0.75 C36.44 28.18, 151.25 155.73, 210.75 175.38 C270.25 195.04, 333.37 126.82, 358.41 117.18" stroke="#c2255c" stroke-width="2" fill="none"></path></g><g transform="translate(253.28125 662.8307692307696) rotate(0 179.9999999999999 87.5)"><path d="M340.33 141.12 C346.47 135.1, 350.9 124.37, 358.41 117.18 M340.33 141.12 C343.6 135.24, 348.37 130.62, 358.41 117.18" stroke="#c2255c" stroke-width="2" fill="none"></path></g><g transform="translate(253.28125 662.8307692307696) rotate(0 179.9999999999999 87.5)"><path d="M329.17 123.9 C339.16 123.65, 347.3 118.65, 358.41 117.18 M329.17 123.9 C334.86 121.71, 341.98 120.72, 358.41 117.18" stroke="#c2255c" stroke-width="2" fill="none"></path></g></g><mask></mask><g transform="translate(1695.0683593749993 1432.4807692307695) rotate(0 118.212890625 40.349999999999994)"><text x="118.212890625" y="0" font-family="Cascadia, Segoe UI Emoji" font-size="67.24999999999999px" fill="#c2255c" text-anchor="middle" style="white-space: pre;" direction="ltr" dominant-baseline="text-before-edge">(8, 5)</text></g><g stroke-linecap="round"><g transform="translate(1685.7812499999993 1490.3307692307694) rotate(0 -163.75 -33.75)"><path d="M1.19 -1 C-32.62 -1.73, -147.7 5.49, -202.63 -5.49 C-257.57 -16.48, -307.63 -56.53, -328.42 -66.91 M0.36 1.09 C-33.65 0.62, -149.25 7.46, -203.65 -4.21 C-258.04 -15.89, -305.45 -58.51, -326.02 -68.95" stroke="#c2255c" stroke-width="2" fill="none"></path></g><g transform="translate(1685.7812499999993 1490.3307692307694) rotate(0 -163.75 -33.75)"><path d="M-296.79 -62.2 C-307.81 -64.3, -316.39 -67.8, -326.02 -68.95 M-296.79 -62.2 C-307.41 -65.37, -316.22 -66.75, -326.02 -68.95" stroke="#c2255c" stroke-width="2" fill="none"></path></g><g transform="translate(1685.7812499999993 1490.3307692307694) rotate(0 -163.75 -33.75)"><path d="M-307.96 -44.99 C-315.23 -52.75, -320.21 -61.8, -326.02 -68.95 M-307.96 -44.99 C-314.71 -54.14, -319.62 -61.52, -326.02 -68.95" stroke="#c2255c" stroke-width="2" fill="none"></path></g></g><mask></mask><g transform="translate(2973.671874999999 10) rotate(0 509.609375 802.8307692307696)"><text x="509.6093749999998" y="0" font-family="Cascadia, Segoe UI Emoji" font-size="133.8051282051282px" fill="#1971c2" text-anchor="middle" style="white-space: pre;" direction="ltr" dominant-baseline="text-before-edge">0 0 0 0 0 0 0</text><text x="509.6093749999998" y="160.56615384615384" font-family="Cascadia, Segoe UI Emoji" font-size="133.8051282051282px" fill="#1971c2" text-anchor="middle" style="white-space: pre;" direction="ltr" dominant-baseline="text-before-edge">0 0 0 0 0 0 0</text><text x="509.6093749999998" y="321.1323076923077" font-family="Cascadia, Segoe UI Emoji" font-size="133.8051282051282px" fill="#1971c2" text-anchor="middle" style="white-space: pre;" direction="ltr" dominant-baseline="text-before-edge">0 0 0 0 0 0 0</text><text x="509.6093749999998" y="481.6984615384615" font-family="Cascadia, Segoe UI Emoji" font-size="133.8051282051282px" fill="#1971c2" text-anchor="middle" style="white-space: pre;" direction="ltr" dominant-baseline="text-before-edge">0 0 0 0 0 0 0</text><text x="509.6093749999998" y="642.2646153846154" font-family="Cascadia, Segoe UI Emoji" font-size="133.8051282051282px" fill="#1971c2" text-anchor="middle" style="white-space: pre;" direction="ltr" dominant-baseline="text-before-edge">0 0 1 2 1 0 0</text><text x="509.6093749999998" y="802.8307692307692" font-family="Cascadia, Segoe UI Emoji" font-size="133.8051282051282px" fill="#1971c2" text-anchor="middle" style="white-space: pre;" direction="ltr" dominant-baseline="text-before-edge">0 0 1 3 2 0 0</text><text x="509.6093749999998" y="963.396923076923" font-family="Cascadia, Segoe UI Emoji" font-size="133.8051282051282px" fill="#1971c2" text-anchor="middle" style="white-space: pre;" direction="ltr" dominant-baseline="text-before-edge">0 0 1 2 1 0 0</text><text x="509.6093749999998" y="1123.9630769230769" font-family="Cascadia, Segoe UI Emoji" font-size="133.8051282051282px" fill="#1971c2" text-anchor="middle" style="white-space: pre;" direction="ltr" dominant-baseline="text-before-edge">0 0 4 2 9 0 0</text><text x="509.6093749999998" y="1284.5292307692307" font-family="Cascadia, Segoe UI Emoji" font-size="133.8051282051282px" fill="#1971c2" text-anchor="middle" style="white-space: pre;" direction="ltr" dominant-baseline="text-before-edge">0 0 0 0 0 0 0</text><text x="509.6093749999998" y="1445.0953846153845" font-family="Cascadia, Segoe UI Emoji" font-size="133.8051282051282px" fill="#1971c2" text-anchor="middle" style="white-space: pre;" direction="ltr" dominant-baseline="text-before-edge">0 0 0 0 0 0 0</text></g><g stroke-linecap="round" transform="translate(3128.281249999999 665.3307692307696) rotate(0 361.25 388.7499999999998)"><path d="M32 0 C233.75 1.36, 434.37 0.35, 690.5 0 M32 0 C263.25 2.87, 495.03 2.54, 690.5 0 M690.5 0 C712.41 -1.13, 722.74 8.68, 722.5 32 M690.5 0 C711.45 0.92, 721.01 9.86, 722.5 32 M722.5 32 C722.99 307.65, 723.07 582.29, 722.5 745.5 M722.5 32 C724.22 240.34, 724.25 448.77, 722.5 745.5 M722.5 745.5 C723.56 765.51, 711.97 776.97, 690.5 777.5 M722.5 745.5 C723.54 768.27, 713.52 776.35, 690.5 777.5 M690.5 777.5 C473.44 777.4, 255.57 777.7, 32 777.5 M690.5 777.5 C433.88 775.33, 177.9 775.26, 32 777.5 M32 777.5 C12.26 776.65, -0.28 767.44, 0 745.5 M32 777.5 C8.9 778.76, -2.02 766.23, 0 745.5 M0 745.5 C-2.21 590.52, -2.44 434.52, 0 32 M0 745.5 C1.64 555.43, 1.2 364.74, 0 32 M0 32 C-0.62 10.27, 11.28 -1.81, 32 0 M0 32 C1.24 9.43, 12.47 -0.67, 32 0" stroke="#c2255c" stroke-width="2" fill="none"></path></g><g stroke-linecap="round"><g transform="translate(1518.2812499999993 750.3307692307696) rotate(0 713.7499999999998 -113.75)"><path d="M-0.35 -0.75 C133.66 -38.8, 565.15 -228.44, 803.28 -228.23 C1041.41 -228.02, 1324.48 -37.6, 1428.44 0.51 M1.67 1.48 C135.66 -36.45, 564.99 -226.56, 802.74 -227.07 C1040.49 -227.57, 1324.11 -39.7, 1428.17 -1.56" stroke="#099268" stroke-width="2" fill="none"></path></g><g transform="translate(1518.2812499999993 750.3307692307696) rotate(0 713.7499999999998 -113.75)"><path d="M1398.33 -4.57 C1404.11 -2.48, 1411.17 -1.49, 1428.17 -1.56 M1398.33 -4.57 C1409.42 -2.67, 1419.22 -3.39, 1428.17 -1.56" stroke="#099268" stroke-width="2" fill="none"></path></g><g transform="translate(1518.2812499999993 750.3307692307696) rotate(0 713.7499999999998 -113.75)"><path d="M1407.24 -23.05 C1410.95 -16.63, 1415.91 -11.3, 1428.17 -1.56 M1407.24 -23.05 C1415.21 -14.79, 1421.96 -9.17, 1428.17 -1.56" stroke="#099268" stroke-width="2" fill="none"></path></g></g><mask></mask></svg>